#Comment line ignore any data following # character 
#Hierarchical Translation and Rotation (.htr) file 
[Header]	
#Header keywords are followed by a single value 
FileType HTR		#Single word string
DataType HTRS		#Translation followed by rotation and scale data
FileVersion 1		#integer
NumSegments 84		#integer
NumFrames 2		#integer
DataFrameRate 30		#integer, data frame rate in this file
EulerRotationOrder ZYX
CalibrationUnits mm
RotationUnits Degrees
GlobalAxisofGravity Y
BoneLengthAxis Y
ScaleFactor 1.00
[SegmentNames&Hierarchy]
#CHILD	PARENT
MASTER GLOBAL
root MASTER
chest root
L_mid_tent01 root
R_mid_tent01 root
spine01 root
Bip01_Neck chest
L_humerus chest
R_humerus chest
weapon_bone chest
Bip01_Head Bip01_Neck
eye_left_bone Bip01_Head
eye_right_bone Bip01_Head
L_forearm L_humerus
L_front_hand L_forearm
L_weapon_bone L_forearm
L_front_hand01_01 L_front_hand
L_front_hand02_01 L_front_hand
L_front_hand03_01 L_front_hand
L_front_hand01_02 L_front_hand01_01
L_front_hand02_02 L_front_hand02_01
L_front_hand03_02 L_front_hand03_01
R_forearm R_humerus
R_front_hand R_forearm
R_weapon_bone R_forearm
R_front_hand01_01 R_front_hand
R_front_hand02_01 R_front_hand
R_front_hand03_01 R_front_hand
R_front_hand01_02 R_front_hand01_01
R_front_hand02_02 R_front_hand02_01
R_front_hand03_02 R_front_hand03_01
null_rope01_connect L_mid_tent01
Rope1_Seg01 null_rope01_connect
Rope1_Seg02 Rope1_Seg01
Rope1_Seg03 Rope1_Seg02
Rope1_Seg04 Rope1_Seg03
Rope1_Seg05 Rope1_Seg04
Rope1_Seg06 Rope1_Seg05
Rope1_Seg07 Rope1_Seg06
Rope1_Seg09 Rope1_Seg07
L_mid_hand01 Rope1_Seg09
L_mid_hand02 Rope1_Seg09
L_mid_hand03 Rope1_Seg09
null_rope02_connect R_mid_tent01
Rope2_Seg01 null_rope02_connect
Rope2_Seg02 Rope2_Seg01
Rope2_Seg03 Rope2_Seg02
Rope2_Seg04 Rope2_Seg03
Rope2_Seg05 Rope2_Seg04
Rope2_Seg06 Rope2_Seg05
Rope2_Seg07 Rope2_Seg06
Rope2_Seg09 Rope2_Seg07
R_mid_hand01 Rope2_Seg09
R_mid_hand02 Rope2_Seg09
R_mid_hand03 Rope2_Seg09
spine02 spine01
spine03 spine02
pelvis spine03
null_rope03_connect pelvis
null_rope04_connect pelvis
Rope3_Seg01 null_rope03_connect
Rope3_Seg02 Rope3_Seg01
Rope3_Seg03 Rope3_Seg02
Rope3_Seg04 Rope3_Seg03
Rope3_Seg05 Rope3_Seg04
Rope3_Seg06 Rope3_Seg05
Rope3_Seg07 Rope3_Seg06
Rope3_Seg08 Rope3_Seg07
Rope3_Seg09 Rope3_Seg08
R_rear_hand01 Rope3_Seg09
R_rear_hand02 Rope3_Seg09
R_rear_hand03 Rope3_Seg09
Rope4_Seg01 null_rope04_connect
Rope4_Seg02 Rope4_Seg01
Rope4_Seg03 Rope4_Seg02
Rope4_Seg04 Rope4_Seg03
Rope4_Seg05 Rope4_Seg04
Rope4_Seg06 Rope4_Seg05
Rope4_Seg07 Rope4_Seg06
Rope4_Seg08 Rope4_Seg07
Rope4_Seg09 Rope4_Seg08
L_rear_hand01 Rope4_Seg09
L_rear_hand02 Rope4_Seg09
L_rear_hand03 Rope4_Seg09
[BasePosition]
#SegmentName Tx, Ty, Tz, Rx, Ry, Rz, BoneLength
MASTER 0.000000 0.000000 0.000000 -90.000000 0.000000 0.000000 10.000000 
root 0.000000 0.000000 0.000000 0.000000 0.000000 0.000000 10.000000 
chest 0.000000 0.000000 0.000000 0.000000 0.000000 0.000000 10.000000 
L_mid_tent01 0.000000 0.000000 0.000000 0.000000 0.000000 0.000000 10.000000 
R_mid_tent01 0.000000 0.000000 0.000000 0.000000 0.000000 0.000000 10.000000 
spine01 0.000000 0.000000 0.000000 0.000000 0.000000 0.000000 10.000000 
Bip01_Neck 0.000000 0.000000 0.000000 0.000000 0.000000 0.000000 10.000000 
L_humerus 0.000000 0.000000 0.000000 0.000000 0.000000 0.000000 10.000000 
R_humerus 0.000000 0.000000 0.000000 0.000000 0.000000 0.000000 10.000000 
weapon_bone 0.000000 0.000000 0.000000 0.000000 0.000000 0.000000 10.000000 
Bip01_Head 0.000000 0.000000 0.000000 0.000000 0.000000 0.000000 10.000000 
eye_left_bone 0.000000 0.000000 0.000000 0.000000 0.000000 0.000000 10.000000 
eye_right_bone 0.000000 0.000000 0.000000 0.000000 0.000000 0.000000 10.000000 
L_forearm 0.000000 0.000000 0.000000 0.000000 0.000000 0.000000 10.000000 
L_front_hand 0.000000 0.000000 0.000000 0.000000 0.000000 0.000000 10.000000 
L_weapon_bone 0.000000 0.000000 0.000000 0.000000 0.000000 0.000000 10.000000 
L_front_hand01_01 0.000000 0.000000 0.000000 0.000000 0.000000 0.000000 10.000000 
L_front_hand02_01 0.000000 0.000000 0.000000 0.000000 0.000000 0.000000 10.000000 
L_front_hand03_01 0.000000 0.000000 0.000000 0.000000 0.000000 0.000000 10.000000 
L_front_hand01_02 0.000000 0.000000 0.000000 0.000000 0.000000 0.000000 10.000000 
L_front_hand02_02 0.000000 0.000000 0.000000 0.000000 0.000000 0.000000 10.000000 
L_front_hand03_02 0.000000 0.000000 0.000000 0.000000 0.000000 0.000000 10.000000 
R_forearm 0.000000 0.000000 0.000000 0.000000 0.000000 0.000000 10.000000 
R_front_hand 0.000000 0.000000 0.000000 0.000000 0.000000 0.000000 10.000000 
R_weapon_bone 0.000000 0.000000 0.000000 0.000000 0.000000 0.000000 10.000000 
R_front_hand01_01 0.000000 0.000000 0.000000 0.000000 0.000000 0.000000 10.000000 
R_front_hand02_01 0.000000 0.000000 0.000000 0.000000 0.000000 0.000000 10.000000 
R_front_hand03_01 0.000000 0.000000 0.000000 0.000000 0.000000 0.000000 10.000000 
R_front_hand01_02 0.000000 0.000000 0.000000 0.000000 0.000000 0.000000 10.000000 
R_front_hand02_02 0.000000 0.000000 0.000000 0.000000 0.000000 0.000000 10.000000 
R_front_hand03_02 0.000000 0.000000 0.000000 0.000000 0.000000 0.000000 10.000000 
null_rope01_connect 0.000000 0.000000 0.000000 0.000000 0.000000 0.000000 10.000000 
Rope1_Seg01 0.000000 0.000000 0.000000 0.000000 0.000000 0.000000 10.000000 
Rope1_Seg02 0.000000 0.000000 0.000000 0.000000 0.000000 0.000000 10.000000 
Rope1_Seg03 0.000000 0.000000 0.000000 0.000000 0.000000 0.000000 10.000000 
Rope1_Seg04 0.000000 0.000000 0.000000 0.000000 0.000000 0.000000 10.000000 
Rope1_Seg05 0.000000 0.000000 0.000000 0.000000 0.000000 0.000000 10.000000 
Rope1_Seg06 0.000000 0.000000 0.000000 0.000000 0.000000 0.000000 10.000000 
Rope1_Seg07 0.000000 0.000000 0.000000 0.000000 0.000000 0.000000 10.000000 
Rope1_Seg09 0.000000 0.000000 0.000000 0.000000 0.000000 0.000000 10.000000 
L_mid_hand01 0.000000 0.000000 0.000000 0.000000 0.000000 0.000000 10.000000 
L_mid_hand02 0.000000 0.000000 0.000000 0.000000 0.000000 0.000000 10.000000 
L_mid_hand03 0.000000 0.000000 0.000000 0.000000 0.000000 0.000000 10.000000 
null_rope02_connect 0.000000 0.000000 0.000000 0.000000 0.000000 0.000000 10.000000 
Rope2_Seg01 0.000000 0.000000 0.000000 0.000000 0.000000 0.000000 10.000000 
Rope2_Seg02 0.000000 0.000000 0.000000 0.000000 0.000000 0.000000 10.000000 
Rope2_Seg03 0.000000 0.000000 0.000000 0.000000 0.000000 0.000000 10.000000 
Rope2_Seg04 0.000000 0.000000 0.000000 0.000000 0.000000 0.000000 10.000000 
Rope2_Seg05 0.000000 0.000000 0.000000 0.000000 0.000000 0.000000 10.000000 
Rope2_Seg06 0.000000 0.000000 0.000000 0.000000 0.000000 0.000000 10.000000 
Rope2_Seg07 0.000000 0.000000 0.000000 0.000000 0.000000 0.000000 10.000000 
Rope2_Seg09 0.000000 0.000000 0.000000 0.000000 0.000000 0.000000 10.000000 
R_mid_hand01 0.000000 0.000000 0.000000 0.000000 0.000000 0.000000 10.000000 
R_mid_hand02 0.000000 0.000000 0.000000 0.000000 0.000000 0.000000 10.000000 
R_mid_hand03 0.000000 0.000000 0.000000 0.000000 0.000000 0.000000 10.000000 
spine02 0.000000 0.000000 0.000000 0.000000 0.000000 0.000000 10.000000 
spine03 0.000000 0.000000 0.000000 0.000000 0.000000 0.000000 10.000000 
pelvis 0.000000 0.000000 0.000000 0.000000 0.000000 0.000000 10.000000 
null_rope03_connect 0.000000 0.000000 0.000000 0.000000 0.000000 0.000000 10.000000 
null_rope04_connect 0.000000 0.000000 0.000000 0.000000 0.000000 0.000000 10.000000 
Rope3_Seg01 0.000000 0.000000 0.000000 0.000000 0.000000 0.000000 10.000000 
Rope3_Seg02 0.000000 0.000000 0.000000 0.000000 0.000000 0.000000 10.000000 
Rope3_Seg03 0.000000 0.000000 0.000000 0.000000 0.000000 0.000000 10.000000 
Rope3_Seg04 0.000000 0.000000 0.000000 0.000000 0.000000 0.000000 10.000000 
Rope3_Seg05 0.000000 0.000000 0.000000 0.000000 0.000000 0.000000 10.000000 
Rope3_Seg06 0.000000 0.000000 0.000000 0.000000 0.000000 0.000000 10.000000 
Rope3_Seg07 0.000000 0.000000 0.000000 0.000000 0.000000 0.000000 10.000000 
Rope3_Seg08 0.000000 0.000000 0.000000 0.000000 0.000000 0.000000 10.000000 
Rope3_Seg09 0.000000 0.000000 0.000000 0.000000 0.000000 0.000000 10.000000 
R_rear_hand01 0.000000 0.000000 0.000000 0.000000 0.000000 0.000000 10.000000 
R_rear_hand02 0.000000 0.000000 0.000000 0.000000 0.000000 0.000000 10.000000 
R_rear_hand03 0.000000 0.000000 0.000000 0.000000 0.000000 0.000000 10.000000 
Rope4_Seg01 0.000000 0.000000 0.000000 0.000000 0.000000 0.000000 10.000000 
Rope4_Seg02 0.000000 0.000000 0.000000 0.000000 0.000000 0.000000 10.000000 
Rope4_Seg03 0.000000 0.000000 0.000000 0.000000 0.000000 0.000000 10.000000 
Rope4_Seg04 0.000000 0.000000 0.000000 0.000000 0.000000 0.000000 10.000000 
Rope4_Seg05 0.000000 0.000000 0.000000 0.000000 0.000000 0.000000 10.000000 
Rope4_Seg06 0.000000 0.000000 0.000000 0.000000 0.000000 0.000000 10.000000 
Rope4_Seg07 0.000000 0.000000 0.000000 0.000000 0.000000 0.000000 10.000000 
Rope4_Seg08 0.000000 0.000000 0.000000 0.000000 0.000000 0.000000 10.000000 
Rope4_Seg09 0.000000 0.000000 0.000000 0.000000 0.000000 0.000000 10.000000 
L_rear_hand01 0.000000 0.000000 0.000000 0.000000 0.000000 0.000000 10.000000 
L_rear_hand02 0.000000 0.000000 0.000000 0.000000 0.000000 0.000000 10.000000 
L_rear_hand03 0.000000 0.000000 0.000000 0.000000 0.000000 0.000000 10.000000 
#Beginning of Data. Separated by tabs
#Fr	Tx	Ty	Tz	Rx	Ry	Rz	SF
[MASTER]
29 -0.000526 3499.999023 0.000000 0.001660 0.001660 0.001660 3499.999023
30 -0.000545 3624.999023 0.000000 0.001660 0.001660 0.001660 3624.999023
[root]
29 -36.727791 -51.787716 1505.550171 -91.728889 -11.584497 -89.471619 1506.888306
30 -35.458443 -52.186577 1506.466797 -91.728889 -11.584497 -89.471619 1507.787354
[chest]
29 -84.512650 -34.090519 0.000000 -2.177576 -0.061460 167.477814 91.129311
30 -84.512650 -34.090519 0.000000 -2.175973 -0.054467 167.574448 91.129311
[L_mid_tent01]
29 27.299152 22.179258 -249.918671 -20.428665 8.635354 14.275879 252.381668
30 27.299156 22.179258 -249.918671 -20.445227 8.922898 14.166571 252.381668
[R_mid_tent01]
29 23.228794 24.509907 226.238495 -165.620758 -11.767376 25.720501 228.744751
30 23.228794 24.509907 226.238495 -165.591995 -12.282117 25.585855 228.744751
[spine01]
29 -0.361383 -0.195265 0.000000 0.001951 0.001306 22.411449 0.410763
30 -0.361383 -0.195265 0.000000 0.001950 0.001306 22.367750 0.410763
[Bip01_Neck]
29 165.484543 71.581718 0.000119 176.643677 -1.657967 43.431911 180.302734
30 165.484543 71.581718 0.000119 176.643677 -1.657967 43.431911 180.302734
[L_humerus]
29 -13.983130 -135.272980 -120.471481 178.984802 31.247856 -89.877495 181.680161
30 -13.983130 -135.272980 -120.471481 179.209229 37.456947 -89.751030 181.680161
[R_humerus]
29 -13.983309 -135.273102 125.287651 -179.856430 -33.190998 -83.534988 184.909012
30 -13.983309 -135.273102 125.287651 179.182999 -38.975132 -82.658951 184.909012
[weapon_bone]
29 235.964890 -300.705902 0.000000 0.000000 -89.951546 -128.212341 382.234833
30 235.964890 -300.705902 0.000000 0.000000 -89.951546 -128.212341 382.234833
[Bip01_Head]
29 213.472900 185.635406 12.809944 4.442125 -1.083368 -43.901173 283.187714
30 213.444809 185.713593 11.800861 4.441242 -0.993003 -43.900871 283.173950
[eye_left_bone]
29 -24.626970 125.451866 -64.772606 0.000000 -90.000000 -99.840431 143.318359
30 -24.626970 125.451866 -64.772606 0.000000 -90.000000 -99.840431 143.318359
[eye_right_bone]
29 -24.626970 125.451866 64.327362 0.000000 -89.965736 80.156380 143.117676
30 -24.626970 125.451866 64.327362 0.000000 -89.965736 80.156380 143.117676
[L_forearm]
29 322.776093 0.000000 -0.000119 0.000411 -0.002311 -110.186462 322.776093
30 322.776093 0.000000 -0.000119 0.000409 -0.002311 -110.088272 322.776093
[L_front_hand]
29 241.149185 -0.042021 -3.300071 -178.667953 -1.835447 -27.422350 241.171753
30 241.149185 -0.042021 -3.300071 -178.667953 -1.835447 -27.422350 241.171753
[L_weapon_bone]
29 156.183838 0.000000 0.000000 0.000014 0.000007 0.000001 156.183838
30 156.183838 0.000000 0.000000 0.000014 0.000007 0.000001 156.183838
[L_front_hand01_01]
29 86.095154 20.947098 -0.655860 -0.358124 -0.483585 74.301987 88.609184
30 86.095154 20.947098 -0.655860 -0.360010 -0.482183 74.749405 88.609184
[L_front_hand02_01]
29 86.935165 -11.437475 24.513514 152.741348 -59.405788 -59.444721 91.046425
30 86.935165 -11.437475 24.513514 153.427795 -59.611073 -60.242870 91.046425
[L_front_hand03_01]
29 86.637497 -14.123976 -20.424902 -152.381119 57.628048 -60.890816 90.126129
30 86.637497 -14.123976 -20.424902 -153.017075 57.836395 -61.646004 90.126129
[L_front_hand01_02]
29 71.020905 -0.000179 0.000030 0.000325 -0.002325 -105.939087 71.020905
30 71.020905 -0.000179 0.000030 0.000327 -0.002324 -105.992577 71.020905
[L_front_hand02_02]
29 71.020927 -0.000119 0.000060 0.000325 -0.002325 -105.939087 71.020927
30 71.020927 -0.000119 0.000060 0.000327 -0.002324 -105.992577 71.020927
[L_front_hand03_02]
29 71.020905 -0.000060 0.000060 0.000325 -0.002325 -105.939087 71.020905
30 71.020905 -0.000060 0.000060 0.000327 -0.002324 -105.992577 71.020905
[R_forearm]
29 322.776428 -0.000060 0.000030 0.201656 0.066528 -108.840462 322.776428
30 322.776428 -0.000060 0.000030 0.201713 0.066354 -108.741913 322.776428
[R_front_hand]
29 238.847015 -0.006795 2.210259 -2.635298 -10.645461 -26.312506 238.857239
30 238.847015 -0.006795 2.210259 -2.635298 -10.645461 -26.312506 238.857239
[R_weapon_bone]
29 155.664093 0.002503 -0.000030 0.003487 0.001180 -90.988930 155.664078
30 155.664093 0.002503 -0.000030 0.003487 0.001180 -90.988930 155.664078
[R_front_hand01_01]
29 87.624611 14.231146 22.918642 -154.633484 -59.950607 61.746033 91.683487
30 87.624611 14.231146 22.918642 -154.633499 -59.950619 61.746044 91.683487
[R_front_hand02_01]
29 89.356956 14.367283 -19.491137 154.602661 58.302856 63.744389 92.579636
30 89.356956 14.367283 -19.491137 154.602661 58.302849 63.744389 92.579636
[R_front_hand03_01]
29 87.286232 -22.307278 -0.143439 0.162155 -0.423168 -75.767921 90.091743
30 87.286232 -22.307278 -0.143439 0.162155 -0.423168 -75.767921 90.091743
[R_front_hand01_02]
29 71.020905 0.000060 0.000119 0.002323 -0.000334 106.381714 71.020905
30 71.020905 0.000060 0.000119 0.002323 -0.000334 106.381714 71.020905
[R_front_hand02_02]
29 71.020844 -0.000030 -0.000119 0.002323 -0.000334 106.381714 71.020836
30 71.020844 -0.000030 -0.000119 0.002323 -0.000334 106.381714 71.020836
[R_front_hand03_02]
29 71.020905 0.000000 0.000030 0.002323 -0.000334 106.381714 71.020905
30 71.020905 0.000000 0.000030 0.002323 -0.000334 106.381714 71.020905
[null_rope01_connect]
29 328.732483 0.000000 -0.000238 -162.395935 -66.345581 -111.704178 328.732483
30 328.732483 0.000000 -0.000238 -161.690002 -66.229057 -112.352394 328.732483
[Rope1_Seg01]
29 -0.000027 -0.000225 0.000046 85.437164 1.389048 -98.843071 0.000231
30 -0.000028 -0.000232 0.000042 84.332428 1.950773 -99.309395 0.000237
[Rope1_Seg02]
29 139.999863 -0.000179 0.000000 2.751606 5.155162 -2.499298 139.999863
30 139.999863 -0.000179 0.000000 3.105031 5.330387 -2.275891 139.999863
[Rope1_Seg03]
29 139.999924 0.000060 -0.000060 -2.788493 2.135691 -6.159062 139.999924
30 139.999924 0.000060 -0.000060 -2.477458 2.461008 -6.085938 139.999924
[Rope1_Seg04]
29 139.999924 -0.000060 -0.000119 7.098455 9.419690 1.333031 139.999924
30 139.999924 -0.000060 -0.000119 7.173762 9.277591 1.613637 139.999924
[Rope1_Seg05]
29 139.999832 0.000119 -0.000060 9.889811 9.889895 6.741472 139.999832
30 139.999832 0.000119 -0.000060 10.066753 9.623672 7.132051 139.999832
[Rope1_Seg06]
29 139.999954 0.000119 -0.000060 2.507864 3.433321 1.229988 139.999954
30 139.999954 0.000119 -0.000060 2.620786 3.414147 1.371542 139.999954
[Rope1_Seg07]
29 139.999985 0.000060 0.000000 1.271906 1.919880 0.530009 139.999985
30 139.999985 0.000060 0.000000 1.332432 1.923773 0.597855 139.999985
[Rope1_Seg09]
29 121.602913 0.000119 -0.000089 -89.793175 -1.359789 0.847147 121.602913
30 121.602913 0.000119 -0.000089 -89.793175 -1.359789 0.847147 121.602913
[L_mid_hand01]
29 103.859421 1.038730 8.195221 130.544373 -67.584534 -38.866947 104.187431
30 103.859421 1.038730 8.195221 130.544373 -67.584534 -38.866943 104.187431
[L_mid_hand02]
29 105.572853 -4.139662 -10.864139 -168.923172 43.409321 -73.498909 106.211075
30 105.572853 -4.139662 -10.864139 -168.923172 43.409309 -73.498886 106.211075
[L_mid_hand03]
29 104.641464 17.579376 -3.913581 -6.012628 17.808178 74.893669 106.179977
30 104.641464 17.579376 -3.913581 -6.012627 17.808174 74.893669 106.179977
[null_rope02_connect]
29 328.732849 0.000179 -0.000119 -152.836014 72.943733 -47.073074 328.732849
30 328.732849 0.000179 -0.000119 -151.537796 72.575996 -45.833519 328.732849
[Rope2_Seg01]
29 0.000103 -0.000179 0.000000 -40.017635 -4.551806 -77.299339 0.000207
30 0.000104 -0.000190 0.000000 -39.069660 -4.032426 -76.677391 0.000216
[Rope2_Seg02]
29 139.999741 -0.000060 -0.000119 -2.067346 8.140093 -5.493187 139.999756
30 139.999741 -0.000060 -0.000119 -2.085123 7.542531 -5.233516 139.999756
[Rope2_Seg03]
29 140.000107 0.000030 0.000000 0.689955 3.666805 -0.758099 140.000107
30 140.000107 0.000030 0.000000 0.913727 3.125278 -0.299963 140.000107
[Rope2_Seg04]
29 139.999802 0.000000 -0.000060 -2.902231 8.227432 -7.746851 139.999802
30 139.999802 0.000000 -0.000060 -3.296236 8.059699 -8.063566 139.999802
[Rope2_Seg05]
29 139.999985 -0.000060 0.000119 -1.963778 6.538877 -6.773088 139.999985
30 139.999985 -0.000060 0.000119 -2.338012 6.873226 -7.448294 139.999985
[Rope2_Seg06]
29 139.999893 -0.000030 -0.000119 -0.492587 2.712030 -2.483748 139.999893
30 139.999893 -0.000030 -0.000119 -0.575396 2.847790 -2.709152 139.999893
[Rope2_Seg07]
29 139.999893 0.000060 -0.000060 -0.256830 1.645484 -1.466143 139.999893
30 139.999893 0.000060 -0.000060 -0.294340 1.723854 -1.590571 139.999893
[Rope2_Seg09]
29 121.338966 0.000089 -0.000060 33.793236 -1.359788 -0.847141 121.338966
30 121.338966 0.000089 -0.000060 33.793236 -1.359788 -0.847141 121.338966
[R_mid_hand01]
29 104.680779 11.144459 -10.335981 -16.212063 45.237247 70.462852 105.778534
30 104.680779 11.144459 -10.335981 -16.212063 45.237247 70.462852 105.778534
[R_mid_hand02]
29 104.070427 2.443552 8.231699 49.067368 -67.749771 39.286453 104.424065
30 104.070427 2.443552 8.231699 49.067368 -67.749771 39.286453 104.424065
[R_mid_hand03]
29 106.028137 -11.221827 -5.996406 -177.101105 15.551026 -76.585571 106.788818
30 106.028137 -11.221827 -5.996406 -177.101105 15.551026 -76.585571 106.788818
[spine02]
29 129.756927 0.001550 0.000119 0.433622 -4.036919 -14.024939 129.756927
30 129.756927 0.001550 0.000119 0.423707 -4.038050 -13.883000 129.756927
[spine03]
29 78.613930 0.081635 -4.899018 1.941621 3.809325 17.165314 78.766472
30 78.613930 0.081635 -4.899018 1.935976 3.811943 17.076508 78.766472
[pelvis]
29 169.435242 0.051022 0.000000 -0.064294 -0.179254 15.486165 169.435257
30 169.435242 0.051022 0.000000 -0.063194 -0.179464 15.305607 169.435257
[null_rope03_connect]
29 -1.257226 -2.466202 137.391083 0.000000 -89.452133 60.560658 137.418976
30 -1.257226 -2.466202 137.391083 0.000000 -89.443977 60.731651 137.418976
[null_rope04_connect]
29 -1.259640 -2.480268 -137.844437 0.000000 -89.452133 60.560658 137.872513
30 -1.259640 -2.480268 -137.844437 0.000000 -89.443977 60.731651 137.872513
[Rope3_Seg01]
29 0.000010 0.000038 -0.000114 4.674983 32.796173 -104.255043 0.000121
30 0.000010 0.000038 -0.000114 5.037298 33.295013 -103.533546 0.000121
[Rope3_Seg02]
29 139.999924 -0.000119 0.000060 1.170453 -4.794869 3.428284 139.999924
30 139.999924 -0.000119 0.000060 1.062280 -4.619407 3.538191 139.999924
[Rope3_Seg03]
29 139.999924 -0.000119 0.000119 1.479022 -6.786700 5.108355 139.999924
30 139.999924 -0.000119 0.000119 1.295684 -6.567462 5.274771 139.999924
[Rope3_Seg04]
29 139.999924 0.000119 0.000000 2.157669 -15.172803 10.228450 139.999924
30 139.999924 0.000119 0.000000 1.482717 -14.314584 11.224901 139.999924
[Rope3_Seg05]
29 139.999924 -0.000238 0.000060 1.244234 -7.357587 9.503230 139.999924
30 139.999924 -0.000238 0.000060 0.846611 -8.517915 9.481838 139.999924
[Rope3_Seg06]
29 139.999893 -0.000119 -0.000060 -0.433004 8.956996 -1.748759 139.999893
30 139.999893 -0.000119 -0.000060 -0.448078 7.573636 -3.646858 139.999893
[Rope3_Seg07]
29 139.999771 0.000060 -0.000119 0.451787 2.304613 0.490588 139.999771
30 139.999771 0.000060 -0.000119 0.408011 1.822709 -0.263893 139.999771
[Rope3_Seg08]
29 139.999985 -0.000060 0.000000 0.529997 1.102636 0.422227 139.999985
30 139.999985 -0.000060 0.000000 0.506377 0.807669 0.034910 139.999985
[Rope3_Seg09]
29 90.185997 -0.000179 -0.000060 89.793228 -1.359877 -0.847183 90.185997
30 90.185997 -0.000179 -0.000060 89.793228 -1.359877 -0.847183 90.185997
[R_rear_hand01]
29 103.366196 -6.073594 -10.757982 -177.714203 24.565960 -73.910950 104.101845
30 103.366196 -6.073594 -10.757982 -177.714203 24.565960 -73.910950 104.101845
[R_rear_hand02]
29 100.509819 12.039542 -7.992327 -12.874829 36.868488 72.167213 101.543350
30 100.509819 12.039542 -7.992327 -12.874829 36.868488 72.167213 101.543350
[R_rear_hand03]
29 101.539970 5.215704 5.435467 71.484581 -71.816628 21.513813 101.819031
30 101.539970 5.215704 5.435467 71.484581 -71.816628 21.513813 101.819031
[Rope4_Seg01]
29 0.000010 0.000038 -0.000114 -92.432991 31.382309 -85.832062 0.000121
30 0.000010 0.000038 -0.000114 -92.484215 30.845490 -85.840408 0.000121
[Rope4_Seg02]
29 139.999985 0.000060 0.000119 -0.443696 0.051263 -5.086951 139.999985
30 139.999985 0.000060 0.000119 -0.395119 0.020700 -4.524920 139.999985
[Rope4_Seg03]
29 139.999924 0.000000 -0.000238 -0.653715 0.144255 -5.377191 139.999924
30 139.999924 0.000000 -0.000238 -0.561844 0.099534 -4.770454 139.999924
[Rope4_Seg04]
29 139.999985 0.000000 0.000119 -0.923249 1.468889 -5.324360 139.999985
30 139.999985 0.000000 0.000119 -0.716114 1.300834 -4.365040 139.999985
[Rope4_Seg05]
29 139.999802 -0.000060 -0.000119 -0.948235 -0.856209 -6.102451 139.999802
30 139.999802 -0.000060 -0.000119 -0.891327 -0.907330 -6.062851 139.999802
[Rope4_Seg06]
29 139.999924 0.000000 0.000060 -0.688948 -3.351909 -5.170293 139.999924
30 139.999924 0.000000 0.000060 -0.854182 -3.048021 -5.811320 139.999924
[Rope4_Seg07]
29 139.999802 0.000000 0.000000 -0.714893 -2.040286 -3.671456 139.999802
30 139.999802 0.000000 0.000000 -0.811494 -1.713299 -3.869839 139.999802
[Rope4_Seg08]
29 139.999924 0.000000 0.000119 -2.167654 -1.063122 -2.407277 139.999924
30 139.999924 0.000000 0.000119 -2.185794 -0.893438 -2.440012 139.999924
[Rope4_Seg09]
29 90.185791 0.000060 0.000060 -135.617828 2.228885 0.850567 90.185791
30 90.185791 0.000060 0.000060 -135.617828 2.228885 0.850567 90.185791
[L_rear_hand01]
29 101.696655 -8.392275 -7.654577 -12.874829 -36.868488 107.832764 102.329041
30 101.696655 -8.392275 -7.654577 -12.874829 -36.868488 107.832764 102.329041
[L_rear_hand02]
29 102.726799 -1.568258 5.773216 71.484634 71.816666 158.486176 102.900848
30 102.726799 -1.568258 5.773216 71.484581 71.816628 158.486160 102.900848
[L_rear_hand03]
29 104.552910 9.721220 -10.420293 -177.714203 -24.565960 -106.089035 105.519653
30 104.552910 9.721220 -10.420293 -177.714203 -24.565960 -106.089035 105.519653
